<?xml version="1.0" encoding="UTF-8"?>
<!DOCTYPE svg PUBLIC "-//W3C//DTD SVG 1.1//EN" "http://www.w3.org/Graphics/SVG/1.1/DTD/svg11.dtd">
<!-- Creator: CorelDRAW 2021 (64-Bit) -->
<svg xmlns="http://www.w3.org/2000/svg" xml:space="preserve" width="2.5401mm" height="2.03mm" version="1.1" style="shape-rendering:geometricPrecision; text-rendering:geometricPrecision; image-rendering:optimizeQuality; fill-rule:evenodd; clip-rule:evenodd"
viewBox="0 0 160.93 128.61"
 xmlns:xlink="http://www.w3.org/1999/xlink"
 xmlns:xodm="http://www.corel.com/coreldraw/odm/2003">
 <defs>
  <style type="text/css">
   <![CDATA[
    .fil0 {fill:#183153}
   ]]>
  </style>
 </defs>
 <g id="Capa_x0020_1">
  <metadata id="CorelCorpID_0Corel-Layer"/>
  <path class="fil0" d="M95.6 127.68c3.85,-13.28 -3.81,-32.31 5.26,-45.09 3.52,-4.97 6.95,-9.87 10.71,-14.78 2.48,-3.24 6.87,-3.09 7.76,0.7 1.46,6.18 -15.79,15.45 -7.98,25.32 3.67,4.64 10.65,5.94 17.14,-0.37l11.52 -13.98c6.54,-8.14 4.57,-5.52 4.57,-21.24 0.01,-8.29 -0.04,-16.56 -0.09,-24.84 -0.03,-3.97 -0.59,-8.62 3.24,-9.33 4.76,-0.89 5.05,3.51 5.03,7.28 -0.03,7.11 1.2,47.09 -0.62,50.21l-11.05 13.78c-5.52,7.02 -22.17,24.73 -19.32,30.94 1.58,3.43 5.43,3.03 7.08,-0.94 1.95,-4.68 1.95,-4.59 4.74,-7.99 7.51,-9.16 14.53,-18.85 22.22,-28.12 6.2,-7.46 5.07,-9.3 4.92,-20.95 -0.11,-8.5 -0.03,-17 -0.13,-25.5 -0.08,-7.22 1.48,-17.56 -2.6,-22.48 -4.59,-5.53 -12.79,-5.99 -17.77,-0.99 -4.66,4.68 -3.69,14.4 -3.57,22.13 0.08,5.34 1.62,27.01 -0.79,30.54 -0.46,0.67 -2.13,2.62 -2.76,3.29l-11.7 13.93c-4.97,3.45 -4.69,-1.93 -1.96,-5.45 3.16,-4.09 9.2,-9.66 7.52,-17.01 -1.36,-5.94 -8.15,-11.4 -15.62,-8.53 -5.88,2.25 -19.13,21.91 -21.34,28.99 -2.14,6.85 -1.44,16.47 -1.44,24.03 0,8.33 -2.71,19.4 7,16.43z"/>
  <path class="fil0" d="M42.69 66.15c4.82,-1.12 5.63,-0.08 7.91,3.21 5.52,8 12.79,15.1 13.69,24.54 1.41,14.77 -2.82,33.88 3.62,34.61 4.53,0.52 4.35,-4.16 4.33,-7.85 -0.13,-16.66 2.39,-31.86 -6.38,-43.74 -5.94,-8.05 -16.49,-27.9 -28.33,-16.07 -9.62,9.61 0.84,17.78 5.04,24.64 2.77,4.51 -0.9,6.33 -3.81,3.12 -4.1,-4.5 -7.69,-9.64 -11.58,-13.96 -3.52,-3.92 -3.11,-3.08 -3.05,-9.71l-0.38 -37.96c-2.05,-13.88 -23.8,-17.47 -23.74,5.06 0.03,8.5 0.1,17 0.12,25.51 0.1,31.26 -2.05,22.94 22.39,53.3 2.07,2.56 3.67,4.7 5.66,7.09 3.31,3.97 2.22,5.14 4.34,8.41 3.55,5.47 11.23,-0.05 3.57,-10.95 -3.47,-4.94 -7.6,-9.68 -11.28,-14.22 -3.83,-4.74 -7.27,-9.1 -11.32,-14.18 -6.83,-8.56 -5.46,-6.32 -5.46,-20.06l-0.27 -37.64c0.16,-4.55 3.35,-7.81 7.01,-4.69 3.54,3.02 -0.35,43.34 1.89,49.21 0.38,0.99 9.75,12.01 11.44,13.98 3.26,3.81 7.05,10.95 14.96,9.53 6.51,-1.17 11.15,-8.29 6.7,-15.07 -1.61,-2.45 -3.44,-4.92 -5.33,-7.43 -2.62,-3.48 -3.83,-4.26 -1.76,-8.7z"/>
  <path class="fil0" d="M76.48 8.43c-16,3.64 -13.2,17.12 -10.05,20.93 4.3,5.21 17.32,6.01 24.16,11.21 0.84,11.62 -12.96,7.17 -20.32,5.02 -6.16,-1.8 -13.39,6.03 6.23,10.08 0.06,3.28 -0.61,5.26 1.32,7.26 5.37,4.98 6.49,-2.67 6.49,-7.08 16,-2.25 16.12,-14.98 12.28,-20.38 -4.67,-6.58 -18.42,-6.25 -24.65,-12.06 -0.64,-11.02 10.68,-7.1 17.63,-5.7 4.57,0.93 7.38,-2.87 4.81,-6.17 -1.67,-2.14 -7.22,-2.75 -10.07,-3.28 0,-3.45 0.61,-8.29 -3.76,-8.27 -4.43,0.01 -3.98,4.69 -4.05,8.43z"/>
 </g>
</svg>
